<svg width="42" height="45" viewBox="0 0 42 45" fill="none" xmlns="http://www.w3.org/2000/svg">
<path d="M35.8593 38.5376C39.6487 34.7392 41.7275 29.6927 41.7185 24.3273L41.7005 11.711C41.705 11.4955 41.6018 11.262 41.4267 11.0914C41.2605 10.9298 41.0495 10.8445 40.843 10.849L29.2054 10.8669L24.6573 1.00735C24.5585 0.809796 24.2891 0.5 23.8805 0.5C23.7638 0.5 23.6336 0.526939 23.4989 0.585306L12.0634 5.88327C7.19644 8.13714 3.49685 12.1555 1.64706 17.1931C-0.202739 22.2306 0.0217507 27.6857 2.28012 32.5527L8.28746 44.0286C8.41767 44.271 8.78134 44.5943 9.24828 44.4776L9.35604 44.4641L21.6715 44.4461C27.0324 44.4371 32.0744 42.3404 35.8593 38.5376ZM23.9613 3.63837L27.3062 10.8849L26.6642 10.9343C24.9581 11.069 23.2789 11.4147 21.6671 11.9714L20.7691 12.2812L23.9613 3.63837ZM8.17073 30.9857L8.1842 40.0865L3.85155 31.8118C1.79522 27.3535 1.59318 22.3788 3.27685 17.7902C4.96502 13.1882 8.34583 9.52 12.7907 7.45918L22.3271 3.04122L18.5152 13.3767L18.3715 13.4576C16.7911 14.3555 15.3275 15.469 14.0299 16.771C10.2405 20.5739 8.16175 25.6204 8.17073 30.9857ZM9.89481 36.3151C9.80502 29.0147 9.73767 23.7392 15.2601 18.0102C20.9846 12.3845 26.5924 12.4743 33.0846 12.5865C34.5573 12.609 36.0793 12.6359 37.6462 12.591L38.7687 12.5596L9.91277 41.5412L9.92175 40.4412C9.93073 38.982 9.91277 37.6261 9.89481 36.3151ZM11.1834 42.722L39.972 13.8167L39.9899 24.3273C40.0034 34.4429 31.7871 42.6906 21.6671 42.7041L11.1834 42.722Z" fill="white"/>
</svg>
