<svg width="45" height="45" viewBox="0 0 45 45" fill="none" xmlns="http://www.w3.org/2000/svg">
<path d="M0.815918 26.723C0.815918 33.5201 5.91037 39.048 12.1757 39.048C13.1454 39.048 14.0883 38.9184 14.9776 38.6637L15.5898 38.4894L16.0144 38.9631C19.1515 42.4801 23.5354 44.4955 28.0444 44.4955C32.5133 44.4955 36.7095 42.6097 39.8779 39.1821C43.0686 35.7277 44.8249 31.1427 44.8249 26.2627C44.8249 22.2408 42.0676 16.5833 36.8525 9.91133C32.768 4.69622 28.7148 0.794942 28.6745 0.754723C28.3215 0.415092 27.7718 0.415092 27.4233 0.754723C27.1954 0.973695 21.7434 6.2469 17.2299 12.5748L16.4925 13.607L15.6479 12.6641C15 11.9446 13.9811 10.8453 12.8013 9.69683C12.4527 9.36167 11.9031 9.36167 11.5545 9.7013C11.4383 9.81302 8.6587 12.4854 5.98187 15.9442C2.60345 20.2969 0.815918 24.0239 0.815918 26.723ZM18.1147 14.4472C21.3323 9.79961 25.2604 5.54083 27.316 3.42261L28.0444 2.67185L28.7729 3.41814C30.3101 4.99563 34.265 9.18739 37.6658 14.0361C41.2051 19.0769 43.0016 23.1927 43.0016 26.2717C43.0105 30.8701 41.2364 35.2942 38.1261 38.409C35.3599 41.1797 31.7804 42.708 28.04 42.708C24.3621 42.708 20.9569 41.3093 18.1952 38.6593L17.3059 37.8057L18.3158 37.0952C21.5736 34.8027 23.522 30.9282 23.522 26.7364C23.522 23.9613 21.663 20.1315 18.1505 15.6582L17.6857 15.0684L18.1147 14.4472ZM11.4428 12.3692L12.1757 11.605L12.9085 12.3737C14.3833 13.9154 21.73 21.8431 21.73 26.7275C21.73 32.5325 17.4444 37.2516 12.1757 37.2516C6.90692 37.2516 2.62132 32.5325 2.62132 26.7275C2.61685 21.8163 9.96806 13.9065 11.4428 12.3692Z" fill="white"/>
<path d="M38.0499 25.816C38.0365 25.3155 37.6388 24.9312 37.1472 24.9312C36.9059 24.9356 36.669 25.0339 36.4992 25.2082C36.3294 25.3825 36.24 25.6104 36.2445 25.8517V25.8607C36.2445 26.035 36.2177 30.1865 33.0538 33.6141C32.7141 33.976 32.7454 34.5481 33.1208 34.9145C33.2683 35.0575 33.4336 35.1201 33.6526 35.1201C33.9833 35.1111 34.314 34.9145 34.3899 34.8385C38.175 30.7272 38.0499 25.8651 38.0499 25.816Z" fill="white"/>
</svg>
