<?xml version="1.0" encoding="UTF-8"?>
<svg xmlns="http://www.w3.org/2000/svg" xmlns:xlink="http://www.w3.org/1999/xlink" width="60px" height="51px" viewBox="0 0 60 51" version="1.1">
<g id="surface1">
<path style="fill:none;stroke-width:1.5;stroke-linecap:butt;stroke-linejoin:miter;stroke:rgb(100%,100%,100%);stroke-opacity:1;stroke-miterlimit:10;" d="M 37.600326 31.988741 C 35.97168 31.988741 34.408594 31.351103 33.25957 30.210248 L 27.000326 23.940717 C 26.548307 23.509881 25.820247 23.509881 25.350977 23.940717 L 19.071029 30.220588 C 17.918555 31.368336 16.358919 32.009421 14.730273 32.009421 L 13.498437 32.009421 L 21.441536 39.950597 C 23.91901 42.418428 27.928516 42.418428 30.399089 39.950597 L 38.349089 31.999081 L 37.600326 31.999081 Z M 37.600326 31.988741 " transform="matrix(1.132075,0,0,1.133333,0,0)"/>
<path style="fill:none;stroke-width:1.5;stroke-linecap:butt;stroke-linejoin:miter;stroke:rgb(100%,100%,100%);stroke-opacity:1;stroke-miterlimit:10;" d="M 14.229948 13.011259 C 15.858594 13.011259 17.42168 13.648897 18.570703 14.789752 L 24.829948 21.059283 C 25.278516 21.490119 26.010026 21.490119 26.479297 21.059283 L 32.759245 14.779412 C 33.911719 13.631664 35.471354 12.990579 37.1 12.990579 L 38.328385 12.990579 L 30.388737 5.049403 C 27.911263 2.581572 23.898307 2.581572 21.431185 5.049403 L 13.481185 13.000919 L 14.229948 13.000919 Z M 14.229948 13.011259 " transform="matrix(1.132075,0,0,1.133333,0,0)"/>
<path style="fill:none;stroke-width:1.5;stroke-linecap:butt;stroke-linejoin:miter;stroke:rgb(100%,100%,100%);stroke-opacity:1;stroke-miterlimit:10;" d="M 43.611133 18.308824 L 39.128906 13.831572 C 39.028841 13.869485 38.918424 13.900506 38.811458 13.900506 L 36.76875 13.900506 C 35.70944 13.900506 34.691536 14.331342 33.949674 15.068934 L 28.111393 20.911075 C 27.010677 22.00023 25.24056 22.00023 24.150195 20.911075 L 18.291211 15.0517 C 17.538997 14.300322 16.531445 13.879825 15.468685 13.879825 L 12.970508 13.879825 C 12.870443 13.879825 12.760026 13.859145 12.670312 13.821232 L 8.160482 18.319164 C 5.858984 20.628447 5.858984 24.371553 8.160482 26.680836 L 12.659961 31.178768 C 12.749674 31.140855 12.860091 31.120175 12.960156 31.120175 L 15.468685 31.120175 C 16.531445 31.120175 17.549349 30.689338 18.291211 29.9483 L 24.150195 24.088925 C 25.209505 23.03079 27.058984 23.03079 28.111393 24.088925 L 33.949674 29.931066 C 34.698437 30.678998 35.70944 31.099494 36.76875 31.099494 L 38.811458 31.099494 C 38.918424 31.099494 39.028841 31.120175 39.128906 31.168428 L 43.611133 26.691176 C 45.919531 24.378447 45.919531 20.638787 43.611133 18.329504 " transform="matrix(1.132075,0,0,1.133333,0,0)"/>
</g>
</svg>
